<svg width="1376" height="150" viewBox="0 0 1376 150" fill="none" xmlns="http://www.w3.org/2000/svg">
<mask id="mask0_321_790" style="mask-type:luminance" maskUnits="userSpaceOnUse" x="0" y="0" width="132" height="150">
<path d="M40.3852 9.86662C27.872 16.356 18.0304 25.2544 10.8978 36.5733C3.78999 47.8923 0.136688 60.9056 0 75.6133C0.0994097 89.8715 3.5539 102.504 10.4132 113.535C17.2476 124.566 26.9276 133.234 39.4408 139.527C51.9167 145.844 66.6915 149.083 83.7154 149.186C93.1469 149.267 101.92 148.506 109.972 146.904C118.024 145.302 125.331 142.397 131.867 138.202V108.152C123.541 114.042 115.514 117.95 107.797 119.863C100.068 121.777 91.8048 122.653 82.9822 122.514C73.7123 122.388 65.4613 120.094 58.2416 115.668C51.0344 111.218 45.3557 105.352 41.1929 98.0207C37.0425 90.6668 34.9301 82.6099 34.8679 73.8037C35.1786 59.3496 40.0248 47.8347 49.419 39.2244C58.8133 30.6603 70.8045 26.2457 85.4178 26.0382C94.4143 26.0036 102.541 27.0756 109.723 29.231C116.931 31.398 124.312 34.8098 131.867 39.4895V9.20961C119.801 3.10061 103.759 0.0576321 83.7154 0C67.3625 0.138317 52.9232 3.42335 40.3852 9.86662Z" fill="white"/>
</mask>
<g mask="url(#mask0_321_790)">
<path fill-rule="evenodd" clip-rule="evenodd" d="M-784.499 589.892H11944.3V-817.475H-784.499V589.892Z" fill="white" fill-opacity="0.1"/>
</g>
<mask id="mask1_321_790" style="mask-type:luminance" maskUnits="userSpaceOnUse" x="0" y="0" width="132" height="150">
<path d="M40.3852 9.86662C27.872 16.356 18.0304 25.2544 10.8978 36.5733C3.78999 47.8923 0.136688 60.9056 0 75.6133C0.0994097 89.8715 3.5539 102.504 10.4132 113.535C17.2476 124.566 26.9276 133.234 39.4408 139.527C51.9167 145.844 66.6915 149.083 83.7154 149.186C93.1469 149.267 101.92 148.506 109.972 146.904C118.024 145.302 125.331 142.397 131.867 138.202V108.152C123.541 114.042 115.514 117.95 107.797 119.863C100.068 121.777 91.8048 122.653 82.9822 122.514C73.7123 122.388 65.4613 120.094 58.2416 115.668C51.0344 111.218 45.3557 105.352 41.1929 98.0207C37.0425 90.6668 34.9301 82.6099 34.8679 73.8037C35.1786 59.3496 40.0248 47.8347 49.419 39.2244C58.8133 30.6603 70.8045 26.2457 85.4178 26.0382C94.4143 26.0036 102.541 27.0756 109.723 29.231C116.931 31.398 124.312 34.8098 131.867 39.4895V9.20961C119.801 3.10061 103.759 0.0576321 83.7154 0C67.3625 0.138317 52.9232 3.42335 40.3852 9.86662Z" fill="white"/>
</mask>
<g mask="url(#mask1_321_790)">
<path fill-rule="evenodd" clip-rule="evenodd" d="M-50.9155 196.428H182.772V-47.2295H-50.9155V196.428Z" fill="white" fill-opacity="0.1"/>
</g>
<mask id="mask2_321_790" style="mask-type:luminance" maskUnits="userSpaceOnUse" x="163" y="0" width="150" height="150">
<path d="M183.703 20.4588C170.365 33.7949 163.515 51.8798 163.227 74.7252C163.311 89.7672 166.447 102.873 172.648 114.042C178.837 125.188 187.525 133.856 198.712 140.034C209.899 146.212 223.033 149.336 238.102 149.428C253.159 149.336 266.281 146.212 277.456 140.034C288.656 133.856 297.344 125.188 303.532 114.042C309.721 102.873 312.881 89.7672 312.965 74.7252C312.665 51.8798 305.767 33.7949 292.369 20.4588C278.958 7.13426 260.862 0.310622 238.102 0.0224609C215.223 0.310622 197.09 7.13426 183.703 20.4588ZM207.676 110.307C200.575 101.501 196.994 89.6289 196.909 74.7252C196.994 59.81 200.575 47.9493 207.676 39.1316C214.754 30.3139 224.908 25.8071 238.102 25.5881C251.152 25.8071 261.294 30.3139 268.408 39.1316C275.558 47.9493 279.175 59.81 279.271 74.7252C279.175 89.6289 275.558 101.501 268.408 110.307C261.294 119.137 251.152 123.655 238.102 123.862C224.908 123.655 214.754 119.137 207.676 110.307Z" fill="white"/>
</mask>
<g mask="url(#mask2_321_790)">
<path fill-rule="evenodd" clip-rule="evenodd" d="M-757.164 589.891H11552V-817.476H-757.164V589.891Z" fill="white" fill-opacity="0.1"/>
</g>
<mask id="mask3_321_790" style="mask-type:luminance" maskUnits="userSpaceOnUse" x="163" y="0" width="150" height="150">
<path d="M183.703 20.4588C170.365 33.7949 163.515 51.8798 163.227 74.7252C163.311 89.7672 166.447 102.873 172.648 114.042C178.837 125.188 187.525 133.856 198.712 140.034C209.899 146.212 223.033 149.336 238.102 149.428C253.159 149.336 266.281 146.212 277.456 140.034C288.656 133.856 297.344 125.188 303.532 114.042C309.721 102.873 312.881 89.7672 312.965 74.7252C312.665 51.8798 305.767 33.7949 292.369 20.4588C278.958 7.13426 260.862 0.310622 238.102 0.0224609C215.223 0.310622 197.09 7.13426 183.703 20.4588ZM207.676 110.307C200.575 101.501 196.994 89.6289 196.909 74.7252C196.994 59.81 200.575 47.9493 207.676 39.1316C214.754 30.3139 224.908 25.8071 238.102 25.5881C251.152 25.8071 261.294 30.3139 268.408 39.1316C275.558 47.9493 279.175 59.81 279.271 74.7252C279.175 89.6289 275.558 101.501 268.408 110.307C261.294 119.137 251.152 123.655 238.102 123.862C224.908 123.655 214.754 119.137 207.676 110.307Z" fill="white"/>
</mask>
<g mask="url(#mask3_321_790)">
<path fill-rule="evenodd" clip-rule="evenodd" d="M113.976 196.643H362.19V-47.21H113.976V196.643Z" fill="white" fill-opacity="0.1"/>
</g>
<mask id="mask4_321_790" style="mask-type:luminance" maskUnits="userSpaceOnUse" x="359" y="0" width="97" height="150">
<path d="M376.73 12.245C366.87 19.9562 361.788 30.6182 361.496 44.2078C361.391 52.1956 363.634 59.3535 368.143 65.7046C372.665 72.1018 379.99 77.646 390.154 82.3487L409.489 91.3278C414.185 93.368 417.772 95.6733 420.249 98.2552C422.749 100.837 424.01 104.203 424.045 108.375C423.905 112.917 421.849 116.824 417.912 120.075C413.952 123.348 408.94 125.054 402.888 125.204C393.904 125.146 385.761 123.982 378.494 121.758C371.216 119.533 364.79 116.628 359.218 113.101L362.174 144.05C368.914 146.355 375.877 147.83 383.051 148.51C390.189 149.202 397.269 149.502 404.255 149.456C413.987 149.386 422.737 147.542 430.471 143.865C438.217 140.234 444.362 135.105 448.918 128.535C453.474 121.965 455.776 114.277 455.881 105.471C455.659 96.3418 452.995 88.7229 447.972 82.5216C442.901 76.3435 436.92 71.7099 429.969 68.6784L407.666 58.5697C403.25 56.6679 399.617 54.2473 396.801 51.285C393.986 48.3112 392.514 44.7841 392.432 40.6346C392.549 35.6322 394.687 31.7016 398.869 28.8546C403.016 25.9845 408.449 24.5322 415.167 24.4861C420.926 24.3247 426.592 25.1431 432.165 26.9182C437.773 28.6932 444.222 32.3702 451.57 37.9374V8.77559C447.364 6.65473 441.932 4.78745 435.238 3.11611C428.555 1.44478 421.861 0.557247 415.167 0.476562C399.406 0.603353 386.579 4.52234 376.73 12.245Z" fill="white"/>
</mask>
<g mask="url(#mask4_321_790)">
<path fill-rule="evenodd" clip-rule="evenodd" d="M-718.959 589.899H11248.3V-817.468H-718.959V589.899Z" fill="white" fill-opacity="0.1"/>
</g>
<mask id="mask5_321_790" style="mask-type:luminance" maskUnits="userSpaceOnUse" x="359" y="0" width="97" height="150">
<path d="M376.73 12.245C366.87 19.9562 361.788 30.6182 361.496 44.2078C361.391 52.1956 363.634 59.3535 368.143 65.7046C372.665 72.1018 379.99 77.646 390.154 82.3487L409.489 91.3278C414.185 93.368 417.772 95.6733 420.249 98.2552C422.749 100.837 424.01 104.203 424.045 108.375C423.905 112.917 421.849 116.824 417.912 120.075C413.952 123.348 408.94 125.054 402.888 125.204C393.904 125.146 385.761 123.982 378.494 121.758C371.216 119.533 364.79 116.628 359.218 113.101L362.174 144.05C368.914 146.355 375.877 147.83 383.051 148.51C390.189 149.202 397.269 149.502 404.255 149.456C413.987 149.386 422.737 147.542 430.471 143.865C438.217 140.234 444.362 135.105 448.918 128.535C453.474 121.965 455.776 114.277 455.881 105.471C455.659 96.3418 452.995 88.7229 447.972 82.5216C442.901 76.3435 436.92 71.7099 429.969 68.6784L407.666 58.5697C403.25 56.6679 399.617 54.2473 396.801 51.285C393.986 48.3112 392.514 44.7841 392.432 40.6346C392.549 35.6322 394.687 31.7016 398.869 28.8546C403.016 25.9845 408.449 24.5322 415.167 24.4861C420.926 24.3247 426.592 25.1431 432.165 26.9182C437.773 28.6932 444.222 32.3702 451.57 37.9374V8.77559C447.364 6.65473 441.932 4.78745 435.238 3.11611C428.555 1.44478 421.861 0.557247 415.167 0.476562C399.406 0.603353 386.579 4.52234 376.73 12.245Z" fill="white"/>
</mask>
<g mask="url(#mask5_321_790)">
<path fill-rule="evenodd" clip-rule="evenodd" d="M311.352 196.673H503.755V-46.7646H311.352V196.673Z" fill="white" fill-opacity="0.1"/>
</g>
<mask id="mask6_321_790" style="mask-type:luminance" maskUnits="userSpaceOnUse" x="502" y="1" width="93" height="146">
<path d="M502.15 1.05273V146.46H584.934L594.047 121.091H533.308V85.0853H572.889L581.079 60.6238H533.308V25.747H582.446L590.845 1.05273H502.15Z" fill="white"/>
</mask>
<g mask="url(#mask6_321_790)">
<path fill-rule="evenodd" clip-rule="evenodd" d="M-722.492 594.105H11244.7V-826.795H-722.492V594.105Z" fill="white" fill-opacity="0.1"/>
</g>
<mask id="mask7_321_790" style="mask-type:luminance" maskUnits="userSpaceOnUse" x="502" y="1" width="93" height="146">
<path d="M502.15 1.05273V146.46H584.934L594.047 121.091H533.308V85.0853H572.889L581.079 60.6238H533.308V25.747H582.446L590.845 1.05273H502.15Z" fill="white"/>
</mask>
<g mask="url(#mask7_321_790)">
<path fill-rule="evenodd" clip-rule="evenodd" d="M454.284 194.145H641.909V-46.6299H454.284V194.145Z" fill="white" fill-opacity="0.1"/>
</g>
<mask id="mask8_321_790" style="mask-type:luminance" maskUnits="userSpaceOnUse" x="639" y="1" width="140" height="146">
<path d="M749.507 1.05273V84.8526L680.293 1.05273H639.166L655.01 19.8585V146.46H683.836V54.5026L760.608 146.46H778.563V1.05273H749.507Z" fill="white"/>
</mask>
<g mask="url(#mask8_321_790)">
<path fill-rule="evenodd" clip-rule="evenodd" d="M-765.967 594.105H11661.5V-826.795H-765.967V594.105Z" fill="white" fill-opacity="0.1"/>
</g>
<mask id="mask9_321_790" style="mask-type:luminance" maskUnits="userSpaceOnUse" x="639" y="1" width="140" height="146">
<path d="M749.507 1.05273V84.8526L680.293 1.05273H639.166L655.01 19.8585V146.46H683.836V54.5026L760.608 146.46H778.563V1.05273H749.507Z" fill="white"/>
</mask>
<g mask="url(#mask9_321_790)">
<path fill-rule="evenodd" clip-rule="evenodd" d="M589.478 194.145H828.286V-46.6299H589.478V194.145Z" fill="white" fill-opacity="0.1"/>
</g>
<mask id="mask10_321_790" style="mask-type:luminance" maskUnits="userSpaceOnUse" x="812" y="1" width="123" height="146">
<path d="M812.332 1.05273V27.1085H853.711V146.46H887.112V27.1085H925.808L934.767 1.05273H812.332Z" fill="white"/>
</mask>
<g mask="url(#mask10_321_790)">
<path fill-rule="evenodd" clip-rule="evenodd" d="M-807.454 594.105H11921.3V-826.795H-807.454V594.105Z" fill="white" fill-opacity="0.1"/>
</g>
<mask id="mask11_321_790" style="mask-type:luminance" maskUnits="userSpaceOnUse" x="812" y="1" width="123" height="146">
<path d="M812.332 1.05273V27.1085H853.711V146.46H887.112V27.1085H925.808L934.767 1.05273H812.332Z" fill="white"/>
</mask>
<g mask="url(#mask11_321_790)">
<path fill-rule="evenodd" clip-rule="evenodd" d="M761.427 194.145H985.696V-46.6299H761.427V194.145Z" fill="white" fill-opacity="0.1"/>
</g>
<mask id="mask12_321_790" style="mask-type:luminance" maskUnits="userSpaceOnUse" x="967" y="1" width="29" height="146">
<path d="M967.826 1.05273H995.889V146.46H967.826V1.05273Z" fill="white"/>
</mask>
<g mask="url(#mask12_321_790)">
<path fill-rule="evenodd" clip-rule="evenodd" d="M-537.88 594.105H10232.6V-826.795H-537.88V594.105Z" fill="white" fill-opacity="0.1"/>
</g>
<mask id="mask13_321_790" style="mask-type:luminance" maskUnits="userSpaceOnUse" x="967" y="1" width="29" height="146">
<path d="M967.826 1.05273H995.889V146.46H967.826V1.05273Z" fill="white"/>
</mask>
<g mask="url(#mask13_321_790)">
<path fill-rule="evenodd" clip-rule="evenodd" d="M924.74 194.146H1038.95V-46.6289H924.74V194.146Z" fill="white" fill-opacity="0.1"/>
</g>
<mask id="mask14_321_790" style="mask-type:luminance" maskUnits="userSpaceOnUse" x="1047" y="1" width="141" height="146">
<path d="M1158.06 1.05273V84.8526L1088.86 1.05273H1047.75L1063.58 19.8585V146.46H1092.39V54.5026L1169.18 146.46H1187.15V1.05273H1158.06Z" fill="white"/>
</mask>
<g mask="url(#mask14_321_790)">
<path fill-rule="evenodd" clip-rule="evenodd" d="M-768.384 594.105H11659.1V-826.795H-768.384V594.105Z" fill="white" fill-opacity="0.1"/>
</g>
<mask id="mask15_321_790" style="mask-type:luminance" maskUnits="userSpaceOnUse" x="1047" y="1" width="141" height="146">
<path d="M1158.06 1.05273V84.8526L1088.86 1.05273H1047.75L1063.58 19.8585V146.46H1092.39V54.5026L1169.18 146.46H1187.15V1.05273H1158.06Z" fill="white"/>
</mask>
<g mask="url(#mask15_321_790)">
<path fill-rule="evenodd" clip-rule="evenodd" d="M998.028 194.145H1236.85V-46.6299H998.028V194.145Z" fill="white" fill-opacity="0.1"/>
</g>
<mask id="mask16_321_790" style="mask-type:luminance" maskUnits="userSpaceOnUse" x="1226" y="0" width="151" height="150">
<path d="M1246.76 20.4588C1233.39 33.7949 1226.55 51.8798 1226.25 74.7252C1226.35 89.7672 1229.48 102.873 1235.7 114.042C1241.87 125.188 1250.56 133.856 1261.75 140.034C1272.93 146.212 1286.07 149.336 1301.13 149.428C1316.19 149.336 1329.3 146.212 1340.49 140.034C1351.69 133.856 1360.38 125.188 1366.57 114.042C1372.77 102.873 1375.9 89.7672 1376 74.7252C1375.69 51.8798 1368.81 33.7949 1355.4 20.4588C1341.99 7.13426 1323.88 0.310622 1301.13 0.0224609C1278.25 0.310622 1260.14 7.13426 1246.76 20.4588ZM1270.72 110.307C1263.61 101.501 1260.03 89.6289 1259.94 74.7252C1260.03 59.81 1263.61 47.9493 1270.72 39.1316C1277.79 30.3139 1287.94 25.8071 1301.13 25.5881C1314.2 25.8071 1324.31 30.3139 1331.44 39.1316C1338.59 47.9493 1342.21 59.81 1342.31 74.7252C1342.21 89.6289 1338.59 101.501 1331.44 110.307C1324.31 119.137 1314.2 123.655 1301.13 123.862C1287.94 123.655 1277.79 119.137 1270.72 110.307Z" fill="white"/>
</mask>
<g mask="url(#mask16_321_790)">
<path fill-rule="evenodd" clip-rule="evenodd" d="M-752.668 589.891H11556.5V-817.476H-752.668V589.891Z" fill="white" fill-opacity="0.1"/>
</g>
<mask id="mask17_321_790" style="mask-type:luminance" maskUnits="userSpaceOnUse" x="1226" y="0" width="151" height="150">
<path d="M1246.76 20.4588C1233.39 33.7949 1226.55 51.8798 1226.25 74.7252C1226.35 89.7672 1229.48 102.873 1235.7 114.042C1241.87 125.188 1250.56 133.856 1261.75 140.034C1272.93 146.212 1286.07 149.336 1301.13 149.428C1316.19 149.336 1329.3 146.212 1340.49 140.034C1351.69 133.856 1360.38 125.188 1366.57 114.042C1372.77 102.873 1375.9 89.7672 1376 74.7252C1375.69 51.8798 1368.81 33.7949 1355.4 20.4588C1341.99 7.13426 1323.88 0.310622 1301.13 0.0224609C1278.25 0.310622 1260.14 7.13426 1246.76 20.4588ZM1270.72 110.307C1263.61 101.501 1260.03 89.6289 1259.94 74.7252C1260.03 59.81 1263.61 47.9493 1270.72 39.1316C1277.79 30.3139 1287.94 25.8071 1301.13 25.5881C1314.2 25.8071 1324.31 30.3139 1331.44 39.1316C1338.59 47.9493 1342.21 59.81 1342.31 74.7252C1342.21 89.6289 1338.59 101.501 1331.44 110.307C1324.31 119.137 1314.2 123.655 1301.13 123.862C1287.94 123.655 1277.79 119.137 1270.72 110.307Z" fill="white"/>
</mask>
<g mask="url(#mask17_321_790)">
<path fill-rule="evenodd" clip-rule="evenodd" d="M1177.02 196.643H1425.23V-47.21H1177.02V196.643Z" fill="white" fill-opacity="0.1"/>
</g>
</svg>
