<svg width="517" height="25" viewBox="0 0 517 25" fill="none" xmlns="http://www.w3.org/2000/svg">
<path d="M509.178 6.83252C513.499 6.83252 516.044 8.84213 516.078 12.6269H512.394C512.394 10.5838 511.188 9.61248 509.145 9.61248C507.37 9.61248 506.331 10.3828 506.331 11.6221C506.331 13.0958 507.504 13.3973 510.183 14.0671C513.298 14.871 516.614 15.6078 516.614 19.6605C516.614 22.742 513.867 24.852 509.48 24.852C504.925 24.852 502.145 22.8089 502.111 18.7562H505.996C505.996 20.8328 507.269 22.0051 509.547 22.0051C511.489 22.0051 512.628 21.1678 512.628 19.895C512.628 18.1533 511.288 17.8184 508.341 17.0815C505.494 16.3782 502.513 15.7418 502.513 11.9235C502.513 8.90912 505.193 6.83252 509.178 6.83252Z" fill="#313131"/>
<path d="M491.694 6.83252C496.852 6.83252 500.068 10.3158 500.068 15.8423C500.068 21.3687 496.852 24.852 491.694 24.852C486.536 24.852 483.287 21.3687 483.287 15.8423C483.287 10.3158 486.536 6.83252 491.694 6.83252ZM491.694 9.84694C488.981 9.84694 487.307 12.158 487.307 15.8423C487.307 19.5266 488.981 21.8376 491.694 21.8376C494.407 21.8376 496.082 19.5266 496.082 15.8423C496.082 12.158 494.407 9.84694 491.694 9.84694Z" fill="#313131"/>
<path d="M480.247 4.15324H476.429V0.502441H480.247V4.15324ZM480.247 24.3498H476.429V7.33512H480.247V24.3498Z" fill="#313131"/>
<path d="M472.212 24.3498H468.494V22.0053H468.427C467.422 23.747 465.513 24.7518 463.37 24.7518C459.049 24.7518 456.269 21.2684 456.269 15.8425C456.269 10.4165 459.015 6.89971 463.336 6.89971C465.446 6.89971 467.355 7.87102 468.327 9.5457H468.394V0.502441H472.212V24.3498ZM464.475 9.88063C461.896 9.88063 460.255 12.2252 460.255 15.8425C460.255 19.4598 461.896 21.8043 464.475 21.8043C466.953 21.8043 468.595 19.5268 468.595 15.8425C468.595 12.1247 466.953 9.88063 464.475 9.88063Z" fill="#313131"/>
<path d="M444.449 24.7518C440.598 24.7518 438.253 22.4073 438.253 17.7517V7.33521H442.071V17.4168C442.071 20.4647 443.378 21.6704 445.521 21.6704C447.698 21.6704 449.406 20.0293 449.406 16.7804V7.33521H453.225V24.3499H449.607V22.1393H449.54C448.469 23.6801 446.693 24.7518 444.449 24.7518Z" fill="#313131"/>
<path d="M434.573 21.4358C435.009 21.4358 435.478 21.3688 435.746 21.2683V24.2492C435.176 24.4167 434.305 24.5507 433.602 24.5507C430.018 24.5507 428.444 23.0434 428.444 19.3257V10.2489H425.597V7.33498H428.444V3.0813H432.262V7.33498H435.578V10.2489H432.262V18.7563C432.262 20.6654 432.899 21.4358 434.573 21.4358Z" fill="#313131"/>
<path d="M415.076 0C420.87 0 423.851 2.71298 423.851 7.83749H419.799C419.799 4.82307 418.09 3.28237 415.009 3.28237C412.43 3.28237 410.822 4.52163 410.822 6.46425C410.822 8.64133 412.464 9.3112 416.282 10.249C420.77 11.3543 424.521 12.5266 424.521 17.5506C424.521 21.9718 420.971 24.8522 415.612 24.8522C409.851 24.8522 406.334 21.9383 406.334 16.4788H410.454C410.454 19.8952 412.33 21.5363 415.645 21.5363C418.626 21.5363 420.368 20.1631 420.368 17.919C420.368 15.5075 418.626 14.9716 414.976 14.0673C410.454 12.9285 406.703 11.8232 406.703 6.83268C406.703 2.77996 410.019 0 415.076 0Z" fill="#313131"/>
<path d="M397.109 7.10059C397.545 7.10059 398.081 7.16757 398.516 7.26805V10.6509C398.047 10.5504 397.612 10.5169 397.176 10.5169C394.129 10.5169 392.454 12.4596 392.454 16.0099V24.3498H388.636V7.33504H392.186V9.84706H392.253C393.392 8.00491 394.999 7.10059 397.109 7.10059Z" fill="#313131"/>
<path d="M377.209 6.83252C382.367 6.83252 385.583 10.3158 385.583 15.8423C385.583 21.3687 382.367 24.852 377.209 24.852C372.051 24.852 368.802 21.3687 368.802 15.8423C368.802 10.3158 372.051 6.83252 377.209 6.83252ZM377.209 9.84694C374.496 9.84694 372.822 12.158 372.822 15.8423C372.822 19.5266 374.496 21.8376 377.209 21.8376C379.922 21.8376 381.597 19.5266 381.597 15.8423C381.597 12.158 379.922 9.84694 377.209 9.84694Z" fill="#313131"/>
<path d="M365.762 24.3498H361.944V0.502441H365.762V24.3498Z" fill="#313131"/>
<path d="M348.952 24.7518C345.1 24.7518 342.756 22.4073 342.756 17.7517V7.33521H346.574V17.4168C346.574 20.4647 347.88 21.6704 350.024 21.6704C352.201 21.6704 353.909 20.0293 353.909 16.7804V7.33521H357.728V24.3499H354.11V22.1393H354.043C352.971 23.6801 351.196 24.7518 348.952 24.7518Z" fill="#313131"/>
<path d="M338.706 24.3498H334.988V22.0053H334.921C333.917 23.747 332.007 24.7518 329.864 24.7518C325.543 24.7518 322.763 21.2684 322.763 15.8425C322.763 10.4165 325.51 6.89971 329.83 6.89971C331.94 6.89971 333.85 7.87102 334.821 9.5457H334.888V0.502441H338.706V24.3498ZM330.969 9.88063C328.39 9.88063 326.749 12.2252 326.749 15.8425C326.749 19.4598 328.39 21.8043 330.969 21.8043C333.448 21.8043 335.089 19.5268 335.089 15.8425C335.089 12.1247 333.448 9.88063 330.969 9.88063Z" fill="#313131"/>
<path d="M312.182 6.83252C317.34 6.83252 320.555 10.3158 320.555 15.8423C320.555 21.3687 317.34 24.852 312.182 24.852C307.024 24.852 303.775 21.3687 303.775 15.8423C303.775 10.3158 307.024 6.83252 312.182 6.83252ZM312.182 9.84694C309.469 9.84694 307.794 12.158 307.794 15.8423C307.794 19.5266 309.469 21.8376 312.182 21.8376C314.895 21.8376 316.57 19.5266 316.57 15.8423C316.57 12.158 314.895 9.84694 312.182 9.84694Z" fill="#313131"/>
<path d="M300.225 24.3498H296.34V12.3592C296.34 9.34474 296.374 6.33032 296.474 3.3159H296.407C295.503 6.33032 294.532 9.31124 293.527 12.2922L289.407 24.3498H284.818L280.699 12.2922C279.694 9.31124 278.723 6.33032 277.818 3.3159H277.751C277.852 6.33032 277.885 9.34474 277.885 12.3592V24.3498H274V0.502441H280.464L284.316 11.8568C285.321 14.8042 286.259 17.8521 287.062 20.833H287.129C287.967 17.8521 288.905 14.8042 289.909 11.8568L293.761 0.502441H300.225V24.3498Z" fill="#313131"/>
<mask id="mask0_312_100" style="mask-type:luminance" maskUnits="userSpaceOnUse" x="0" y="0" width="23" height="25">
<path d="M6.75043 1.64922C4.65884 2.73393 3.01381 4.22131 1.82158 6.11329C0.633502 8.00527 0.0228476 10.1805 0 12.6389C0.0166164 15.0222 0.594038 17.1338 1.74057 18.9776C2.88295 20.8214 4.50098 22.2703 6.59258 23.3222C8.67794 24.378 11.1476 24.9194 13.9931 24.9368C15.5696 24.9502 17.036 24.8231 18.3819 24.5553C19.7279 24.2875 20.9492 23.8019 22.0417 23.1006V18.0778C20.6501 19.0624 19.3083 19.7155 18.0185 20.0353C16.7265 20.3552 15.3453 20.5016 13.8706 20.4785C12.3211 20.4573 10.9419 20.0739 9.73516 19.334C8.53047 18.5903 7.58125 17.6097 6.88544 16.3843C6.1917 15.1551 5.8386 13.8084 5.82822 12.3364C5.88015 9.92037 6.6902 7.99564 8.26045 6.55642C9.8307 5.12491 11.8351 4.387 14.2777 4.35232C15.7815 4.34654 17.1399 4.52572 18.3404 4.88601C19.5451 5.24822 20.7789 5.81851 22.0417 6.60073V1.5394C20.0249 0.518271 17.3434 0.0096333 13.9931 0C11.2597 0.0231199 8.84618 0.572218 6.75043 1.64922Z" fill="white"/>
</mask>
<g mask="url(#mask0_312_100)">
<path fill-rule="evenodd" clip-rule="evenodd" d="M-131.13 98.5936H1996.5V-136.631H-131.13V98.5936Z" fill="white" fill-opacity="0.1"/>
</g>
<mask id="mask1_312_100" style="mask-type:luminance" maskUnits="userSpaceOnUse" x="0" y="0" width="23" height="25">
<path d="M6.75043 1.64922C4.65884 2.73393 3.01381 4.22131 1.82158 6.11329C0.633502 8.00527 0.0228476 10.1805 0 12.6389C0.0166164 15.0222 0.594038 17.1338 1.74057 18.9776C2.88295 20.8214 4.50098 22.2703 6.59258 23.3222C8.67794 24.378 11.1476 24.9194 13.9931 24.9368C15.5696 24.9502 17.036 24.8231 18.3819 24.5553C19.7279 24.2875 20.9492 23.8019 22.0417 23.1006V18.0778C20.6501 19.0624 19.3083 19.7155 18.0185 20.0353C16.7265 20.3552 15.3453 20.5016 13.8706 20.4785C12.3211 20.4573 10.9419 20.0739 9.73516 19.334C8.53047 18.5903 7.58125 17.6097 6.88544 16.3843C6.1917 15.1551 5.8386 13.8084 5.82822 12.3364C5.88015 9.92037 6.6902 7.99564 8.26045 6.55642C9.8307 5.12491 11.8351 4.387 14.2777 4.35232C15.7815 4.34654 17.1399 4.52572 18.3404 4.88601C19.5451 5.24822 20.7789 5.81851 22.0417 6.60073V1.5394C20.0249 0.518271 17.3434 0.0096333 13.9931 0C11.2597 0.0231199 8.84618 0.572218 6.75043 1.64922Z" fill="white"/>
</mask>
<g mask="url(#mask1_312_100)">
<path fill-rule="evenodd" clip-rule="evenodd" d="M-8.51068 32.8331H30.5504V-7.89453H-8.51068V32.8331Z" fill="white" fill-opacity="0.1"/>
</g>
<mask id="mask2_312_100" style="mask-type:luminance" maskUnits="userSpaceOnUse" x="27" y="0" width="26" height="25">
<path d="M30.7064 3.41963C28.4769 5.64877 27.332 8.6717 27.2838 12.4903C27.2978 15.0046 27.8221 17.1952 28.8585 19.0622C29.8929 20.9253 31.3451 22.3741 33.2151 23.4068C35.0851 24.4395 37.2805 24.9616 39.7992 24.977C42.316 24.9616 44.5094 24.4395 46.3773 23.4068C48.2493 22.3741 49.7015 20.9253 50.736 19.0622C51.7704 17.1952 52.2986 15.0046 52.3127 12.4903C52.2625 8.6717 51.1096 5.64877 48.87 3.41963C46.6284 1.19241 43.6035 0.0518286 39.7992 0.00366211C35.9749 0.0518286 32.944 1.19241 30.7064 3.41963ZM34.7135 18.4379C33.5264 16.966 32.9279 14.9815 32.9138 12.4903C32.9279 9.99724 33.5264 8.01471 34.7135 6.54082C35.8966 5.06692 37.5938 4.3136 39.7992 4.27699C41.9806 4.3136 43.6758 5.06692 44.8649 6.54082C46.06 8.01471 46.6646 9.99724 46.6806 12.4903C46.6646 14.9815 46.06 16.966 44.8649 18.4379C43.6758 19.9138 41.9806 20.669 39.7992 20.7037C37.5938 20.669 35.8966 19.9138 34.7135 18.4379Z" fill="white"/>
</mask>
<g mask="url(#mask2_312_100)">
<path fill-rule="evenodd" clip-rule="evenodd" d="M-126.56 98.5934H1930.93V-136.631H-126.56V98.5934Z" fill="white" fill-opacity="0.1"/>
</g>
<mask id="mask3_312_100" style="mask-type:luminance" maskUnits="userSpaceOnUse" x="27" y="0" width="26" height="25">
<path d="M30.7064 3.41963C28.4769 5.64877 27.332 8.6717 27.2838 12.4903C27.2978 15.0046 27.8221 17.1952 28.8585 19.0622C29.8929 20.9253 31.3451 22.3741 33.2151 23.4068C35.0851 24.4395 37.2805 24.9616 39.7992 24.977C42.316 24.9616 44.5094 24.4395 46.3773 23.4068C48.2493 22.3741 49.7015 20.9253 50.736 19.0622C51.7704 17.1952 52.2986 15.0046 52.3127 12.4903C52.2625 8.6717 51.1096 5.64877 48.87 3.41963C46.6284 1.19241 43.6035 0.0518286 39.7992 0.00366211C35.9749 0.0518286 32.944 1.19241 30.7064 3.41963ZM34.7135 18.4379C33.5264 16.966 32.9279 14.9815 32.9138 12.4903C32.9279 9.99724 33.5264 8.01471 34.7135 6.54082C35.8966 5.06692 37.5938 4.3136 39.7992 4.27699C41.9806 4.3136 43.6758 5.06692 44.8649 6.54082C46.06 8.01471 46.6646 9.99724 46.6806 12.4903C46.6646 14.9815 46.06 16.966 44.8649 18.4379C43.6758 19.9138 41.9806 20.669 39.7992 20.7037C37.5938 20.669 35.8966 19.9138 34.7135 18.4379Z" fill="white"/>
</mask>
<g mask="url(#mask3_312_100)">
<path fill-rule="evenodd" clip-rule="evenodd" d="M19.0518 32.869H60.541V-7.89136H19.0518V32.869Z" fill="white" fill-opacity="0.1"/>
</g>
<mask id="mask4_312_100" style="mask-type:luminance" maskUnits="userSpaceOnUse" x="60" y="0" width="17" height="25">
<path d="M62.9714 2.04671C61.3233 3.33564 60.4738 5.1178 60.425 7.38934C60.4074 8.72451 60.7824 9.92097 61.5361 10.9826C62.2919 12.0519 63.5163 12.9786 65.2152 13.7647L68.447 15.2655C69.2321 15.6065 69.8316 15.9919 70.2456 16.4234C70.6635 16.855 70.8744 17.4176 70.8802 18.115C70.8568 18.8742 70.5131 19.5273 69.855 20.0706C69.193 20.6178 68.3553 20.9029 67.3437 20.928C65.842 20.9183 64.4809 20.7237 63.2663 20.3519C62.0497 19.9801 60.9757 19.4945 60.0442 18.905L60.5383 24.0781C61.665 24.4634 62.8289 24.71 64.0279 24.8237C65.221 24.9393 66.4044 24.9894 67.5722 24.9817C69.1989 24.9701 70.6615 24.6618 71.9542 24.0472C73.2489 23.4403 74.2761 22.583 75.0377 21.4848C75.7993 20.3866 76.184 19.1015 76.2016 17.6295C76.1645 16.1036 75.7192 14.8301 74.8795 13.7936C74.032 12.7609 73.0322 11.9863 71.8703 11.4796L68.1424 9.78995C67.4043 9.47205 66.7969 9.06746 66.3263 8.5723C65.8557 8.07523 65.6096 7.48567 65.596 6.79207C65.6155 5.9559 65.9729 5.29891 66.672 4.82303C67.3652 4.34329 68.2732 4.10053 69.3961 4.09282C70.3588 4.06585 71.3059 4.20264 72.2374 4.49935C73.1747 4.79605 74.2527 5.41066 75.481 6.34123V1.46678C74.778 1.11228 73.8699 0.800161 72.751 0.520795C71.634 0.241429 70.515 0.0930765 69.3961 0.0795898C66.7618 0.100783 64.6176 0.755847 62.9714 2.04671Z" fill="white"/>
</mask>
<g mask="url(#mask4_312_100)">
<path fill-rule="evenodd" clip-rule="evenodd" d="M-120.174 98.5946H1880.16V-136.63H-120.174V98.5946Z" fill="white" fill-opacity="0.1"/>
</g>
<mask id="mask5_312_100" style="mask-type:luminance" maskUnits="userSpaceOnUse" x="60" y="0" width="17" height="25">
<path d="M62.9714 2.04671C61.3233 3.33564 60.4738 5.1178 60.425 7.38934C60.4074 8.72451 60.7824 9.92097 61.5361 10.9826C62.2919 12.0519 63.5163 12.9786 65.2152 13.7647L68.447 15.2655C69.2321 15.6065 69.8316 15.9919 70.2456 16.4234C70.6635 16.855 70.8744 17.4176 70.8802 18.115C70.8568 18.8742 70.5131 19.5273 69.855 20.0706C69.193 20.6178 68.3553 20.9029 67.3437 20.928C65.842 20.9183 64.4809 20.7237 63.2663 20.3519C62.0497 19.9801 60.9757 19.4945 60.0442 18.905L60.5383 24.0781C61.665 24.4634 62.8289 24.71 64.0279 24.8237C65.221 24.9393 66.4044 24.9894 67.5722 24.9817C69.1989 24.9701 70.6615 24.6618 71.9542 24.0472C73.2489 23.4403 74.2761 22.583 75.0377 21.4848C75.7993 20.3866 76.184 19.1015 76.2016 17.6295C76.1645 16.1036 75.7192 14.8301 74.8795 13.7936C74.032 12.7609 73.0322 11.9863 71.8703 11.4796L68.1424 9.78995C67.4043 9.47205 66.7969 9.06746 66.3263 8.5723C65.8557 8.07523 65.6096 7.48567 65.596 6.79207C65.6155 5.9559 65.9729 5.29891 66.672 4.82303C67.3652 4.34329 68.2732 4.10053 69.3961 4.09282C70.3588 4.06585 71.3059 4.20264 72.2374 4.49935C73.1747 4.79605 74.2527 5.41066 75.481 6.34123V1.46678C74.778 1.11228 73.8699 0.800161 72.751 0.520795C71.634 0.241429 70.515 0.0930765 69.3961 0.0795898C66.7618 0.100783 64.6176 0.755847 62.9714 2.04671Z" fill="white"/>
</mask>
<g mask="url(#mask5_312_100)">
<path fill-rule="evenodd" clip-rule="evenodd" d="M52.0435 32.8742H84.204V-7.81689H52.0435V32.8742Z" fill="white" fill-opacity="0.1"/>
</g>
<mask id="mask6_312_100" style="mask-type:luminance" maskUnits="userSpaceOnUse" x="83" y="0" width="17" height="25">
<path d="M83.9354 0.176025V24.4811H97.7729L99.2961 20.2406H89.1435V14.2222H95.7596L97.1285 10.1334H89.1435V4.30371H97.3569L98.761 0.176025H83.9354Z" fill="white"/>
</mask>
<g mask="url(#mask6_312_100)">
<path fill-rule="evenodd" clip-rule="evenodd" d="M-120.764 99.2975H1879.57V-138.189H-120.764V99.2975Z" fill="white" fill-opacity="0.1"/>
</g>
<mask id="mask7_312_100" style="mask-type:luminance" maskUnits="userSpaceOnUse" x="83" y="0" width="17" height="25">
<path d="M83.9354 0.176025V24.4811H97.7729L99.2961 20.2406H89.1435V14.2222H95.7596L97.1285 10.1334H89.1435V4.30371H97.3569L98.761 0.176025H83.9354Z" fill="white"/>
</mask>
<g mask="url(#mask7_312_100)">
<path fill-rule="evenodd" clip-rule="evenodd" d="M75.9347 32.4517H107.296V-7.79419H75.9347V32.4517Z" fill="white" fill-opacity="0.1"/>
</g>
<mask id="mask8_312_100" style="mask-type:luminance" maskUnits="userSpaceOnUse" x="106" y="0" width="25" height="25">
<path d="M125.282 0.176025V14.1833L113.713 0.176025H106.838L109.486 3.31944V24.4811H114.305V9.11026L127.137 24.4811H130.138V0.176025H125.282Z" fill="white"/>
</mask>
<g mask="url(#mask8_312_100)">
<path fill-rule="evenodd" clip-rule="evenodd" d="M-128.032 99.2975H1949.24V-138.189H-128.032V99.2975Z" fill="white" fill-opacity="0.1"/>
</g>
<mask id="mask9_312_100" style="mask-type:luminance" maskUnits="userSpaceOnUse" x="106" y="0" width="25" height="25">
<path d="M125.282 0.176025V14.1833L113.713 0.176025H106.838L109.486 3.31944V24.4811H114.305V9.11026L127.137 24.4811H130.138V0.176025H125.282Z" fill="white"/>
</mask>
<g mask="url(#mask9_312_100)">
<path fill-rule="evenodd" clip-rule="evenodd" d="M98.5325 32.4517H138.45V-7.79419H98.5325V32.4517Z" fill="white" fill-opacity="0.1"/>
</g>
<mask id="mask10_312_100" style="mask-type:luminance" maskUnits="userSpaceOnUse" x="135" y="0" width="22" height="25">
<path d="M135.783 0.17627V4.53154H142.699V24.4814H148.282V4.53154H154.75L156.248 0.17627H135.783Z" fill="white"/>
</mask>
<g mask="url(#mask10_312_100)">
<path fill-rule="evenodd" clip-rule="evenodd" d="M-134.966 99.2975H1992.66V-138.189H-134.966V99.2975Z" fill="white" fill-opacity="0.1"/>
</g>
<mask id="mask11_312_100" style="mask-type:luminance" maskUnits="userSpaceOnUse" x="135" y="0" width="22" height="25">
<path d="M135.783 0.17627V4.53154H142.699V24.4814H148.282V4.53154H154.75L156.248 0.17627H135.783Z" fill="white"/>
</mask>
<g mask="url(#mask11_312_100)">
<path fill-rule="evenodd" clip-rule="evenodd" d="M127.275 32.4517H164.761V-7.79419H127.275V32.4517Z" fill="white" fill-opacity="0.1"/>
</g>
<mask id="mask12_312_100" style="mask-type:luminance" maskUnits="userSpaceOnUse" x="161" y="0" width="6" height="25">
<path d="M161.773 0.17627H166.464V24.4814H161.773V0.17627Z" fill="white"/>
</mask>
<g mask="url(#mask12_312_100)">
<path fill-rule="evenodd" clip-rule="evenodd" d="M-89.9081 99.2975H1710.39V-138.189H-89.9081V99.2975Z" fill="white" fill-opacity="0.1"/>
</g>
<mask id="mask13_312_100" style="mask-type:luminance" maskUnits="userSpaceOnUse" x="161" y="0" width="6" height="25">
<path d="M161.773 0.17627H166.464V24.4814H161.773V0.17627Z" fill="white"/>
</mask>
<g mask="url(#mask13_312_100)">
<path fill-rule="evenodd" clip-rule="evenodd" d="M154.571 32.4519H173.661V-7.79395H154.571V32.4519Z" fill="white" fill-opacity="0.1"/>
</g>
<mask id="mask14_312_100" style="mask-type:luminance" maskUnits="userSpaceOnUse" x="175" y="0" width="24" height="25">
<path d="M193.572 0.176025V14.1833L182.005 0.176025H175.132L177.778 3.31944V24.4811H182.595V9.11026L195.429 24.4811H198.433V0.176025H193.572Z" fill="white"/>
</mask>
<g mask="url(#mask14_312_100)">
<path fill-rule="evenodd" clip-rule="evenodd" d="M-128.436 99.2975H1948.83V-138.189H-128.436V99.2975Z" fill="white" fill-opacity="0.1"/>
</g>
<mask id="mask15_312_100" style="mask-type:luminance" maskUnits="userSpaceOnUse" x="175" y="0" width="24" height="25">
<path d="M193.572 0.176025V14.1833L182.005 0.176025H175.132L177.778 3.31944V24.4811H182.595V9.11026L195.429 24.4811H198.433V0.176025H193.572Z" fill="white"/>
</mask>
<g mask="url(#mask15_312_100)">
<path fill-rule="evenodd" clip-rule="evenodd" d="M166.822 32.4517H206.741V-7.79419H166.822V32.4517Z" fill="white" fill-opacity="0.1"/>
</g>
<mask id="mask16_312_100" style="mask-type:luminance" maskUnits="userSpaceOnUse" x="204" y="0" width="27" height="25">
<path d="M208.398 3.41963C206.162 5.64877 205.019 8.6717 204.969 12.4903C204.985 15.0046 205.51 17.1952 206.548 19.0622C207.58 20.9253 209.033 22.3741 210.903 23.4068C212.773 24.4395 214.968 24.9616 217.485 24.977C220.003 24.9616 222.195 24.4395 224.065 23.4068C225.937 22.3741 227.389 20.9253 228.423 19.0622C229.46 17.1952 229.984 15.0046 230 12.4903C229.948 8.6717 228.799 5.64877 226.557 3.41963C224.316 1.19241 221.289 0.0518286 217.485 0.00366211C213.66 0.0518286 210.633 1.19241 208.398 3.41963ZM212.403 18.4379C211.214 16.966 210.615 14.9815 210.601 12.4903C210.615 9.99724 211.214 8.01471 212.403 6.54082C213.584 5.06692 215.281 4.3136 217.485 4.27699C219.67 4.3136 221.359 5.06692 222.552 6.54082C223.747 8.01471 224.352 9.99724 224.368 12.4903C224.352 14.9815 223.747 16.966 222.552 18.4379C221.359 19.9138 219.67 20.669 217.485 20.7037C215.281 20.669 213.584 19.9138 212.403 18.4379Z" fill="white"/>
</mask>
<g mask="url(#mask16_312_100)">
<path fill-rule="evenodd" clip-rule="evenodd" d="M-125.809 98.5934H1931.68V-136.631H-125.809V98.5934Z" fill="white" fill-opacity="0.1"/>
</g>
<mask id="mask17_312_100" style="mask-type:luminance" maskUnits="userSpaceOnUse" x="204" y="0" width="27" height="25">
<path d="M208.398 3.41963C206.162 5.64877 205.019 8.6717 204.969 12.4903C204.985 15.0046 205.51 17.1952 206.548 19.0622C207.58 20.9253 209.033 22.3741 210.903 23.4068C212.773 24.4395 214.968 24.9616 217.485 24.977C220.003 24.9616 222.195 24.4395 224.065 23.4068C225.937 22.3741 227.389 20.9253 228.423 19.0622C229.46 17.1952 229.984 15.0046 230 12.4903C229.948 8.6717 228.799 5.64877 226.557 3.41963C224.316 1.19241 221.289 0.0518286 217.485 0.00366211C213.66 0.0518286 210.633 1.19241 208.398 3.41963ZM212.403 18.4379C211.214 16.966 210.615 14.9815 210.601 12.4903C210.615 9.99724 211.214 8.01471 212.403 6.54082C213.584 5.06692 215.281 4.3136 217.485 4.27699C219.67 4.3136 221.359 5.06692 222.552 6.54082C223.747 8.01471 224.352 9.99724 224.368 12.4903C224.352 14.9815 223.747 16.966 222.552 18.4379C221.359 19.9138 219.67 20.669 217.485 20.7037C215.281 20.669 213.584 19.9138 212.403 18.4379Z" fill="white"/>
</mask>
<g mask="url(#mask17_312_100)">
<path fill-rule="evenodd" clip-rule="evenodd" d="M196.741 32.869H238.23V-7.89136H196.741V32.869Z" fill="white" fill-opacity="0.1"/>
</g>
<path d="M254.687 12L259.042 16.3542L256.724 18.6713L252.37 14.3171L248.042 18.6458L245.75 16.3542L250.079 12.0255L245.724 7.6713L248.042 5.35417L252.396 9.70834L256.75 5.35417L259.042 7.64584L254.687 12Z" fill="#313131"/>
</svg>
